<svg width="1200" height="300" viewBox="0 0 1200 300" fill="none" xmlns="http://www.w3.org/2000/svg">
  <defs>
    <linearGradient id="bg" x1="0" y1="0" x2="1200" y2="300" gradientUnits="userSpaceOnUse">
      <stop stop-color="#0D1117"/>
      <stop offset="1" stop-color="#171A2A"/>
    </linearGradient>
    <linearGradient id="line" x1="0" y1="0" x2="1200" y2="0" gradientUnits="userSpaceOnUse">
      <stop stop-color="#8B9CF6" stop-opacity="0"/>
      <stop offset="0.5" stop-color="#8B9CF6"/>
      <stop offset="1" stop-color="#EF7B7B" stop-opacity="0"/>
    </linearGradient>
  </defs>
  <rect width="1200" height="300" rx="18" fill="url(#bg)"/>
  <path d="M0 230C145 175 246 251 383 211C526 169 611 215 758 184C917 151 1001 197 1200 126V300H0V230Z" fill="#242846"/>
  <path d="M0 247C170 193 254 270 414 226C566 184 665 237 807 207C956 175 1045 214 1200 159" stroke="url(#line)" stroke-width="2"/>
  <circle cx="1020" cy="68" r="88" stroke="#8B9CF6" stroke-opacity=".16"/>
  <circle cx="1020" cy="68" r="60" stroke="#EF7B7B" stroke-opacity=".16"/>
  <text x="72" y="112" fill="#F0F6FC" font-family="Segoe UI,Arial,sans-serif" font-size="42" font-weight="700">JIANQUAN LU</text>
  <text x="75" y="151" fill="#8B9CF6" font-family="Segoe UI,Arial,sans-serif" font-size="17" letter-spacing="3">GNSS · SENSOR FUSION · NAVIGATION</text>
  <text x="75" y="205" fill="#C9D1D9" font-family="Segoe UI,Arial,sans-serif" font-size="15">Researching reliable positioning systems and building useful tools.</text>
</svg>
